<svg width="308" height="50" viewBox="0 0 308 50" fill="none" xmlns="http://www.w3.org/2000/svg">
<path d="M0.82 30.8C0.82 27.0733 1.51333 23.8017 2.9 20.985C4.33 18.1683 6.25833 16.0017 8.685 14.485C11.1117 12.9683 13.82 12.21 16.81 12.21C19.1933 12.21 21.36 12.7083 23.31 13.705C25.3033 14.7017 26.8633 16.045 27.99 17.735V0.899999H39.105V49H27.99V43.8C26.95 45.5333 25.455 46.92 23.505 47.96C21.5983 49 19.3667 49.52 16.81 49.52C13.82 49.52 11.1117 48.7617 8.685 47.245C6.25833 45.685 4.33 43.4967 2.9 40.68C1.51333 37.82 0.82 34.5267 0.82 30.8ZM27.99 30.865C27.99 28.0917 27.21 25.9033 25.65 24.3C24.1333 22.6967 22.27 21.895 20.06 21.895C17.85 21.895 15.965 22.6967 14.405 24.3C12.8883 25.86 12.13 28.0267 12.13 30.8C12.13 33.5733 12.8883 35.7833 14.405 37.43C15.965 39.0333 17.85 39.835 20.06 39.835C22.27 39.835 24.1333 39.0333 25.65 37.43C27.21 35.8267 27.99 33.6383 27.99 30.865ZM63.6562 49.52C60.1029 49.52 56.8962 48.7617 54.0362 47.245C51.2195 45.7283 48.9879 43.5617 47.3412 40.745C45.7379 37.9283 44.9362 34.635 44.9362 30.865C44.9362 27.1383 45.7595 23.8667 47.4062 21.05C49.0529 18.19 51.3062 16.0017 54.1662 14.485C57.0262 12.9683 60.2329 12.21 63.7862 12.21C67.3395 12.21 70.5462 12.9683 73.4062 14.485C76.2662 16.0017 78.5195 18.19 80.1662 21.05C81.8129 23.8667 82.6362 27.1383 82.6362 30.865C82.6362 34.5917 81.7912 37.885 80.1012 40.745C78.4545 43.5617 76.1795 45.7283 73.2762 47.245C70.4162 48.7617 67.2095 49.52 63.6562 49.52ZM63.6562 39.9C65.7795 39.9 67.5779 39.12 69.0512 37.56C70.5679 36 71.3262 33.7683 71.3262 30.865C71.3262 27.9617 70.5895 25.73 69.1162 24.17C67.6862 22.61 65.9095 21.83 63.7862 21.83C61.6195 21.83 59.8212 22.61 58.3912 24.17C56.9612 25.6867 56.2462 27.9183 56.2462 30.865C56.2462 33.7683 56.9395 36 58.3262 37.56C59.7562 39.12 61.5329 39.9 63.6562 39.9ZM116.483 21.57V30.8H87.8829V21.57H116.483ZM148.338 12.34C152.585 12.34 155.965 13.7267 158.478 16.5C161.035 19.23 162.313 23 162.313 27.81V49H151.263V29.305C151.263 26.8783 150.635 24.9933 149.378 23.65C148.121 22.3067 146.431 21.635 144.308 21.635C142.185 21.635 140.495 22.3067 139.238 23.65C137.981 24.9933 137.353 26.8783 137.353 29.305V49H126.238V12.73H137.353V17.54C138.48 15.9367 139.996 14.68 141.903 13.77C143.81 12.8167 145.955 12.34 148.338 12.34ZM186.547 49.52C182.994 49.52 179.787 48.7617 176.927 47.245C174.11 45.7283 171.879 43.5617 170.232 40.745C168.629 37.9283 167.827 34.635 167.827 30.865C167.827 27.1383 168.65 23.8667 170.297 21.05C171.944 18.19 174.197 16.0017 177.057 14.485C179.917 12.9683 183.124 12.21 186.677 12.21C190.23 12.21 193.437 12.9683 196.297 14.485C199.157 16.0017 201.41 18.19 203.057 21.05C204.704 23.8667 205.527 27.1383 205.527 30.865C205.527 34.5917 204.682 37.885 202.992 40.745C201.345 43.5617 199.07 45.7283 196.167 47.245C193.307 48.7617 190.1 49.52 186.547 49.52ZM186.547 39.9C188.67 39.9 190.469 39.12 191.942 37.56C193.459 36 194.217 33.7683 194.217 30.865C194.217 27.9617 193.48 25.73 192.007 24.17C190.577 22.61 188.8 21.83 186.677 21.83C184.51 21.83 182.712 22.61 181.282 24.17C179.852 25.6867 179.137 27.9183 179.137 30.865C179.137 33.7683 179.83 36 181.217 37.56C182.647 39.12 184.424 39.9 186.547 39.9ZM231.639 39.575V49H225.984C221.954 49 218.812 48.025 216.559 46.075C214.305 44.0817 213.179 40.8533 213.179 36.39V21.96H208.759V12.73H213.179V3.89H224.294V12.73H231.574V21.96H224.294V36.52C224.294 37.6033 224.554 38.3833 225.074 38.86C225.594 39.3367 226.46 39.575 227.674 39.575H231.639ZM272.02 30.28C272.02 31.32 271.955 32.4033 271.825 33.53H246.67C246.843 35.7833 247.558 37.5167 248.815 38.73C250.115 39.9 251.696 40.485 253.56 40.485C256.333 40.485 258.261 39.315 259.345 36.975H271.175C270.568 39.3583 269.463 41.5033 267.86 43.41C266.3 45.3167 264.328 46.8117 261.945 47.895C259.561 48.9783 256.896 49.52 253.95 49.52C250.396 49.52 247.233 48.7617 244.46 47.245C241.686 45.7283 239.52 43.5617 237.96 40.745C236.4 37.9283 235.62 34.635 235.62 30.865C235.62 27.095 236.378 23.8017 237.895 20.985C239.455 18.1683 241.621 16.0017 244.395 14.485C247.168 12.9683 250.353 12.21 253.95 12.21C257.46 12.21 260.58 12.9467 263.31 14.42C266.04 15.8933 268.163 17.995 269.68 20.725C271.24 23.455 272.02 26.64 272.02 30.28ZM260.645 27.355C260.645 25.4483 259.995 23.9317 258.695 22.805C257.395 21.6783 255.77 21.115 253.82 21.115C251.956 21.115 250.375 21.6567 249.075 22.74C247.818 23.8233 247.038 25.3617 246.735 27.355H260.645ZM292.639 49.52C289.475 49.52 286.659 48.9783 284.189 47.895C281.719 46.8117 279.769 45.3383 278.339 43.475C276.909 41.5683 276.107 39.445 275.934 37.105H286.919C287.049 38.3617 287.634 39.38 288.674 40.16C289.714 40.94 290.992 41.33 292.509 41.33C293.895 41.33 294.957 41.07 295.694 40.55C296.474 39.9867 296.864 39.2717 296.864 38.405C296.864 37.365 296.322 36.6067 295.239 36.13C294.155 35.61 292.4 35.0467 289.974 34.44C287.374 33.8333 285.207 33.205 283.474 32.555C281.74 31.8617 280.245 30.8 278.989 29.37C277.732 27.8967 277.104 25.925 277.104 23.455C277.104 21.375 277.667 19.49 278.794 17.8C279.964 16.0667 281.654 14.7017 283.864 13.705C286.117 12.7083 288.782 12.21 291.859 12.21C296.409 12.21 299.984 13.3367 302.584 15.59C305.227 17.8433 306.744 20.8333 307.134 24.56H296.864C296.69 23.3033 296.127 22.3067 295.174 21.57C294.264 20.8333 293.05 20.465 291.534 20.465C290.234 20.465 289.237 20.725 288.544 21.245C287.85 21.7217 287.504 22.3933 287.504 23.26C287.504 24.3 288.045 25.08 289.129 25.6C290.255 26.12 291.989 26.64 294.329 27.16C297.015 27.8533 299.204 28.5467 300.894 29.24C302.584 29.89 304.057 30.9733 305.314 32.49C306.614 33.9633 307.285 35.9567 307.329 38.47C307.329 40.5933 306.722 42.5 305.509 44.19C304.339 45.8367 302.627 47.1367 300.374 48.09C298.164 49.0433 295.585 49.52 292.639 49.52Z" fill="black" fill-opacity="0.75"/>
</svg>
